<?xml version="1.0" encoding="utf-8"?>
<!-- Generator: Adobe Illustrator 23.0.3, SVG Export Plug-In . SVG Version: 6.00 Build 0)  -->
<svg version="1.1" id="Layer_1" xmlns="http://www.w3.org/2000/svg" xmlns:xlink="http://www.w3.org/1999/xlink" x="0px" y="0px"
	 viewBox="0 0 35.11 35.11" style="enable-background:new 0 0 35.11 35.11;" xml:space="preserve">
<style type="text/css">
	.st0{opacity:0.65;}
	.st1{fill:#595959;}
</style>
<g class="st0">
	<path class="st1" d="M20.39,34.89c-0.15,0.02-0.29,0.05-0.44,0.07C20.09,34.93,20.24,34.91,20.39,34.89L20.39,34.89z M20.39,34.89"
		/>
	<path class="st1" d="M20.74,34.83c-0.07,0.01-0.14,0.02-0.21,0.04C20.6,34.85,20.67,34.84,20.74,34.83L20.74,34.83z M20.74,34.83"
		/>
	<path class="st1" d="M19.56,35c-0.17,0.02-0.34,0.04-0.52,0.05C19.21,35.04,19.38,35.02,19.56,35L19.56,35z M19.56,35"/>
	<path class="st1" d="M19.89,34.96c-0.08,0.01-0.17,0.02-0.25,0.03C19.73,34.98,19.81,34.97,19.89,34.96L19.89,34.96z M19.89,34.96"
		/>
	<path class="st1" d="M21.22,34.73c-0.06,0.01-0.12,0.03-0.19,0.04C21.09,34.76,21.16,34.74,21.22,34.73L21.22,34.73z M21.22,34.73"
		/>
	<path class="st1" d="M22.4,34.44c-0.05,0.01-0.1,0.03-0.15,0.04C22.3,34.46,22.35,34.45,22.4,34.44L22.4,34.44z M22.4,34.44"/>
	<path class="st1" d="M22.04,34.53c-0.05,0.01-0.11,0.03-0.16,0.04C21.94,34.56,21.99,34.55,22.04,34.53L22.04,34.53z M22.04,34.53"
		/>
	<path class="st1" d="M21.58,34.65c-0.06,0.01-0.12,0.03-0.17,0.04C21.46,34.68,21.52,34.66,21.58,34.65L21.58,34.65z M21.58,34.65"
		/>
	<path class="st1" d="M19.03,35.05c-0.09,0.01-0.18,0.01-0.28,0.02C18.85,35.07,18.94,35.06,19.03,35.05L19.03,35.05z M19.03,35.05"
		/>
	<path class="st1" d="M35.11,17.56C35.11,7.86,27.25,0,17.56,0S0,7.86,0,17.56s7.86,17.56,17.56,17.56c0.1,0,0.21,0,0.31,0V21.44
		h-3.77v-4.4h3.77v-3.23c0-3.75,2.29-5.79,5.64-5.79c1.6,0,2.98,0.12,3.38,0.17v3.92h-2.31c-1.82,0-2.17,0.87-2.17,2.13v2.8h4.35
		l-0.57,4.4H22.4v12.99C29.74,32.33,35.11,25.57,35.11,17.56L35.11,17.56z M35.11,17.56"/>
	<path class="st1" d="M18.72,35.07c-0.18,0.01-0.37,0.02-0.55,0.03C18.35,35.1,18.53,35.09,18.72,35.07L18.72,35.07z M18.72,35.07"
		/>
	<path class="st1" d="M18.16,35.1c-0.1,0-0.19,0.01-0.29,0.01C17.96,35.11,18.06,35.11,18.16,35.1L18.16,35.1z M18.16,35.1"/>
</g>
</svg>
