<?xml version="1.0" encoding="utf-8"?>
<!-- Generator: Adobe Illustrator 23.0.3, SVG Export Plug-In . SVG Version: 6.00 Build 0)  -->
<svg version="1.1" id="Layer_1" xmlns="http://www.w3.org/2000/svg" xmlns:xlink="http://www.w3.org/1999/xlink" x="0px" y="0px"
	 viewBox="0 0 35.11 35.11" style="enable-background:new 0 0 35.11 35.11;" xml:space="preserve">
<style type="text/css">
	.st0{opacity:0.65;}
	.st1{fill:#595959;}
</style>
<g class="st0">
	<path class="st1" d="M17.56,0C7.86,0,0,7.86,0,17.56s7.86,17.56,17.56,17.56s17.56-7.86,17.56-17.56S27.25,0,17.56,0z M27.83,22.65
		c0,2.86-2.32,5.18-5.18,5.18H12.47c-2.86,0-5.18-2.32-5.18-5.18V12.47c0-2.86,2.32-5.18,5.18-5.18h10.18
		c2.86,0,5.18,2.32,5.18,5.18V22.65z"/>
	<path class="st1" d="M22.65,9.52H12.47c-1.62,0-2.95,1.32-2.95,2.95v10.18c0,1.63,1.32,2.95,2.95,2.95h10.18
		c1.63,0,2.95-1.32,2.95-2.95V12.47C25.59,10.84,24.27,9.52,22.65,9.52z M17.56,22.85c-2.92,0-5.29-2.37-5.29-5.29
		s2.37-5.29,5.29-5.29s5.29,2.37,5.29,5.29S20.47,22.85,17.56,22.85z M23.02,13.36c-0.69,0-1.25-0.56-1.25-1.25
		c0-0.69,0.56-1.25,1.25-1.25c0.69,0,1.25,0.56,1.25,1.25C24.27,12.8,23.71,13.36,23.02,13.36z"/>
	<path class="st1" d="M17.56,14.5c-1.68,0-3.06,1.37-3.06,3.05c0,1.68,1.37,3.06,3.06,3.06c1.68,0,3.05-1.37,3.05-3.06
		C20.61,15.87,19.24,14.5,17.56,14.5z"/>
</g>
</svg>
