<?xml version="1.0" encoding="utf-8"?>
<!-- Generator: Adobe Illustrator 22.0.0, SVG Export Plug-In . SVG Version: 6.00 Build 0)  -->
<svg version="1.1" baseProfile="basic" id="Layer_1"
	 xmlns="http://www.w3.org/2000/svg" xmlns:xlink="http://www.w3.org/1999/xlink" x="0px" y="0px" viewBox="0 0 35.1 35.1"
	 xml:space="preserve">
<path opacity="0.65" fill="#595959" d="M34.7,17.6c0,9.5-7.7,17.2-17.2,17.2c-1.4,0-2.7-0.2-4-0.5c0.4-0.8,0.5-1.4,0.7-2
	c0.3-0.9,1.3-5.1,1.3-5.1c1.8,2.8,5,2.5,6.7,2.3c1.6-0.3,3.5-1.1,5-2.7c1.6-1.6,2.4-3.4,3-5.3c0.6-1.9,0.8-4.5,0.8-5.9
	s-0.6-3.6-1.8-5.4C28,8.3,26.6,7.1,25,6.2c-1.6-0.9-3.7-1.5-6.5-1.6c-2.8,0-4.5,0.4-6.9,1.4c-2.4,1-4.5,3.2-5.6,5
	C5,13,4.5,15,4.4,16.6c-0.1,1.6,0.2,3.5,1,5.3s2.3,2.4,2.9,2.7c0.6,0.3,1-0.2,1-0.5c0.1-0.3,0.3-1,0.4-1.6c0.1-0.6,0-0.8-0.4-1.2
	c-0.4-0.5-1-1.5-1.1-2.5c-0.2-1-0.1-1.9,0-2.9c0.2-1,0.8-3.3,2.6-5.1c1.8-1.8,4.7-3,8.3-2.6c3.6,0.4,5.1,2.1,6.1,3.8
	c1,1.7,0.9,3.9,0.7,6.2c-0.3,2.3-1.3,4.5-2.2,5.7c-0.9,1.2-1.8,1.6-2.6,2c-0.9,0.3-2.7,0.4-3.7-0.8c-1-1.1-0.8-2.2-0.7-2.7
	c0.1-0.5,0.9-3.1,1.5-5.1c0.6-2,0.3-3-0.2-3.9c-0.5-0.9-1.4-1.1-2.2-1.1c-0.7,0-2.8,0.5-3.6,3.2c-0.8,2.7,0.4,5.1,0.4,5.1
	s-2.4,10.2-2.5,10.7c-0.1,0.3-0.2,0.9-0.3,1.7c-5.7-2.8-9.5-8.6-9.5-15.4c0-9.5,7.7-17.2,17.2-17.2C27,0.4,34.7,8.1,34.7,17.6z"/>
</svg>
