<?xml version="1.0" encoding="utf-8"?>
<!-- Generator: Adobe Illustrator 23.0.3, SVG Export Plug-In . SVG Version: 6.00 Build 0)  -->
<svg version="1.1" id="Layer_1" xmlns="http://www.w3.org/2000/svg" xmlns:xlink="http://www.w3.org/1999/xlink" x="0px" y="0px"
	 viewBox="0 0 35.11 35.11" style="enable-background:new 0 0 35.11 35.11;" xml:space="preserve">
<style type="text/css">
	.st0{opacity:0.65;}
	.st1{fill:#595959;}
</style>
<g class="st0">
	<path class="st1" d="M17.56,0C7.86,0,0,7.86,0,17.56s7.86,17.56,17.56,17.56s17.56-7.86,17.56-17.56S27.25,0,17.56,0z M25.68,13.17
		c-0.04,0.05-0.05,0.06-0.06,0.08c-0.05,0.08-0.11,0.17-0.98,1.33c-0.22,0.29-0.33,0.67-0.31,1.06c0.08,1.5-0.11,2.86-0.55,4.04
		c-0.42,1.12-1.06,2.07-1.92,2.85c-1.06,0.96-2.41,1.61-4.02,1.94c-0.79,0.16-1.63,0.25-2.51,0.25c-0.76,0-1.54-0.06-2.32-0.18
		c-1.38-0.22-2.78-0.94-3.17-1.16L8.8,22.82l1.12-0.37c1.23-0.4,1.97-0.65,2.9-1.05c-0.93-0.45-1.64-1.25-1.98-2.3l-0.26-0.79
		l0.21,0.03c-0.2-0.2-0.36-0.41-0.49-0.6c-0.44-0.67-0.68-1.49-0.63-2.2l0.05-0.69l0.41,0.16c-0.17-0.33-0.3-0.68-0.38-1.05
		c-0.18-0.9-0.03-1.86,0.43-2.7l0.36-0.66l0.48,0.58c1.53,1.83,3.46,2.92,5.76,3.24c-0.09-0.65-0.02-1.27,0.21-1.83
		c0.27-0.65,0.75-1.2,1.39-1.6c0.71-0.44,1.57-0.65,2.43-0.6c0.91,0.06,1.73,0.4,2.38,0.98c0.32-0.08,0.55-0.17,0.87-0.29
		c0.19-0.07,0.41-0.15,0.68-0.25l1-0.34l-0.65,1.86c0.04,0,0.09-0.01,0.13-0.01l1.07-0.05L25.68,13.17z"/>
</g>
</svg>
