<?xml version="1.0" encoding="utf-8"?>
<!-- Generator: Adobe Illustrator 23.0.3, SVG Export Plug-In . SVG Version: 6.00 Build 0)  -->
<svg version="1.1" id="Layer_1" xmlns="http://www.w3.org/2000/svg" xmlns:xlink="http://www.w3.org/1999/xlink" x="0px" y="0px"
	 viewBox="0 0 159 25" style="enable-background:new 0 0 159 25;" xml:space="preserve">
<style type="text/css">
	.st0{fill-rule:evenodd;clip-rule:evenodd;fill:#253289;}
</style>
<g>
	<path class="st0" d="M129.09,24.49c0-4.19,0-18.33,0-22.57c0-0.87,0.56-1.38,1.39-1.38c1.49,0,3.85,0,5.34,0
		c0.82,0,1.81,0.54,2.49,1.37c2.41,2.96,7.87,9.66,7.87,9.66s0-6.72,0-11.03h8.09c0,5.61,0,18.42,0,22.62
		c0,0.85-0.55,1.34-1.37,1.34c-1.49,0-3.84,0-5.33,0c-0.83,0-1.81-0.52-2.48-1.34c-2.4-2.94-7.9-9.69-7.9-9.69l0,0
		c0,0,0,8.09,0,11.02H129.09z"/>
	<path class="st0" d="M33.44,0.52c-1.32,4.67-3.61,12.72-3.61,12.72S27.7,5.12,26.84,1.87c-0.21-0.82-0.92-1.33-1.72-1.33
		c-1.16,0-2.8,0-3.96,0c-0.81,0-1.53,0.54-1.75,1.39c-0.87,3.3-2.99,11.36-2.99,11.36s-2.36-8.05-3.75-12.75H4.73
		C6.45,6.19,10.33,19,11.6,23.17c0.25,0.84,0.96,1.33,1.78,1.33c1.38,0,3.5,0,4.88,0c0.82,0,1.55-0.53,1.82-1.35
		c0.93-2.88,3.04-9.38,3.04-9.38s2.1,6.48,3.04,9.37c0.27,0.83,1,1.36,1.82,1.36c1.38,0,3.5,0,4.88,0c0.82,0,1.53-0.5,1.79-1.36
		c1.28-4.21,5.17-17.03,6.84-22.63H33.44z"/>
	<path class="st0" d="M65.74,0.5c0,4.29,0,18.48,0,22.66c0,0.85,0.52,1.34,1.37,1.34c2.96,0,10.44,0,13.39,0c0.85,0,1.37,0,1.37,0
		s0-0.55,0-1.34c0-1.95,0-5.32,0-5.32h-8.04c0,0,0-13.24,0-17.34H65.74z"/>
	<path class="st0" d="M77.46,0.54c0,3.31,0,6.66,0,6.66h6.97c0,0,0,11.87,0,15.95c0,0.85,0,1.36,0,1.36s0.56,0,1.38,0
		c1.49,0,3.85,0,5.34,0c0.82,0,1.37,0,1.37,0s0-0.51,0-1.36c0-4.08,0-15.95,0-15.95h6.97c0,0,0-3.34,0-6.66H77.46z"/>
	<path class="st0" d="M112.29,7.93c-1.54,0-2.8,1.26-2.8,2.8v3.59c0,1.54,1.27,2.8,2.8,2.8h3.97c1.53,0,2.8-1.27,2.8-2.8v-3.59
		c0-1.53-1.26-2.8-2.8-2.8H112.29L112.29,7.93z M110,0.54c-5.75,0-7.94,2.8-7.94,7.94v8.09c0,5.11,2.18,7.94,7.94,7.94h8.56
		c5.72,0,7.94-2.85,7.94-7.94V8.47c0-5.19-2.22-7.94-7.94-7.94H110L110,0.54z"/>
	<path class="st0" d="M63.5,24.5l-0.42-1.35c-1.27-4.19-5.16-16.98-6.45-21.23c-0.27-0.88-0.95-1.39-1.79-1.39
		c-2.33,0-7.04,0-9.39,0c-0.85,0-1.54,0.5-1.81,1.37c-1.28,4.23-5.17,17.06-6.44,21.26L36.8,24.5h8.09c0,0,0.16-0.58,0.38-1.36
		c0.44-1.55,1.1-3.88,1.1-3.88h7.57l0,0c0,0,0.65,2.32,1.09,3.87l0.38,1.37H63.5z M52.51,14.3h-4.73l2.36-8.63L52.51,14.3
		L52.51,14.3z"/>
</g>
</svg>
