<?xml version="1.0" encoding="utf-8"?>
<!-- Generator: Adobe Illustrator 23.0.3, SVG Export Plug-In . SVG Version: 6.00 Build 0)  -->
<svg version="1.1" id="Layer_1" xmlns="http://www.w3.org/2000/svg" xmlns:xlink="http://www.w3.org/1999/xlink" x="0px" y="0px"
	 viewBox="0 0 35.11 35.11" style="enable-background:new 0 0 35.11 35.11;" xml:space="preserve">
<style type="text/css">
	.st0{opacity:0.65;}
	.st1{fill:#595959;}
</style>
<g class="st0">
	<path class="st1" d="M15.37,20.85l5.71-3.29l-5.71-3.29V20.85z"/>
	<path class="st1" d="M17.56,0C7.86,0,0,7.86,0,17.56s7.86,17.56,17.56,17.56s17.56-7.86,17.56-17.56S27.25,0,17.56,0L17.56,0z
		 M28.53,17.57c0,0,0,3.56-0.45,5.28c-0.25,0.94-0.99,1.68-1.93,1.93c-1.72,0.45-8.58,0.45-8.58,0.45s-6.85,0-8.58-0.47
		c-0.94-0.25-1.68-0.99-1.93-1.93c-0.45-1.7-0.45-5.28-0.45-5.28s0-3.56,0.45-5.28c0.25-0.94,1.01-1.7,1.93-1.95
		c1.72-0.45,8.58-0.45,8.58-0.45s6.87,0,8.58,0.47c0.94,0.25,1.68,0.99,1.93,1.93C28.55,14,28.53,17.57,28.53,17.57L28.53,17.57z"/>
</g>
</svg>
